<svg xmlns="http://www.w3.org/2000/svg" width="512" height="512" viewBox="0 0 512 512">
  <defs>
    <linearGradient id="g" x1="0" y1="0" x2="1" y2="1">
      <stop offset="0" stop-color="#0e7490"/>
      <stop offset="1" stop-color="#155e75"/>
    </linearGradient>
  </defs>
  <rect width="512" height="512" rx="112" fill="url(#g)"/>
  <path fill="#ffffff" d="M256 408c-8 0-15-3-21-9-30-29-122-101-122-179 0-46 35-82 80-82 26 0 49 12 63 32 14-20 37-32 63-32 45 0 80 36 80 82 0 78-92 150-122 179-6 6-13 9-21 9z" opacity="0.18"/>
  <path fill="none" stroke="#ffffff" stroke-width="22" stroke-linecap="round" stroke-linejoin="round"
        d="M96 268h70l30-72 44 150 38-128 26 50h112"/>
</svg>
